#!OML:ASF F:\VICON\USERDATA\INSTALL\rory3\rory3.ASF
:FULLY-SPECIFIED
:DEGREES
385
root -13.9394 18.0619 9.73465 133.606 -88.7791 -136.31
lowerback 11.1393 0.924143 0.738878
upperback 1.56673 1.32007 1.3613
thorax -4.62338 0.621783 0.808648
lowerneck -19.5846 -6.42698 -12.4141
upperneck 27.5261 -8.7201 10.0115
head 13.6039 -3.99332 4.47857
rclavicle -1.43622e-014 -1.19271e-015
rhumerus -34.9009 -17.8092 -77.8979
rradius 25.3083
rwrist 11.6866
rhand -14.7451 8.05959
rfingers 7.12502
rthumb 11.4106 -21.6099
lclavicle -1.43622e-014 -1.19271e-015
lhumerus -31.8049 -4.20739 86.8487
lradius 33.3735
lwrist -6.13596
lhand -16.9169 26.6075
lfingers 7.12502
lthumb 9.3155 56.3817
rfemur -6.70795 -2.80221 27.1466
rtibia 20.3852
rfoot -7.86313 3.04453
rtoes 21.5375
lfemur -5.47675 -1.74251 -17.19
ltibia 53.1737
lfoot 8.72751 -14.8136
ltoes -3.24489
386
root -14.0635 18.058 9.73461 141.876 -88.514 -144.643
lowerback 11.1331 1.08392 0.8351
upperback 1.5747 1.54158 1.32608
thorax -4.61021 0.72921 0.684833
lowerneck -19.4004 -6.4228 -12.4245
upperneck 27.4071 -8.71261 9.98956
head 13.513 -3.99802 4.47146
rclavicle -9.44227e-016 5.56597e-015
rhumerus -34.3337 -17.4216 -78.1013
rradius 25.2523
rwrist 11.5216
rhand -14.7528 7.90943
rfingers 7.12502
rthumb 11.4032 -21.7605
lclavicle -9.44227e-016 5.56597e-015
lhumerus -32.101 -3.99619 86.9498
lradius 33.1003
lwrist -6.18711
lhand -17.0945 26.8092
lfingers 7.12502
lthumb 9.14414 56.591
rfemur -6.15994 -2.77399 27.1623
rtibia 20.3542
rfoot -8.17455 3.29196
rtoes 19.4154
lfemur -6.45993 -1.52293 -17.06
ltibia 53.8848
lfoot 7.48624 -13.6143
ltoes -3.18548
387
root -14.1862 18.0543 9.7388 147.532 -88.3288 -150.344
lowerback 11.086 1.21942 0.992054
upperback 1.61961 1.73268 1.21443
thorax -4.53011 0.820365 0.453133
lowerneck -19.4363 -6.44767 -12.415
upperneck 27.4044 -8.78541 10.1045
head 13.5362 -4.0132 4.50242
rclavicle 2.75068e-014 1.51076e-014
rhumerus -33.7408 -17.4239 -78.2734
rradius 25.1637
rwrist 11.8041
rhand -14.7123 8.1621
rfingers 7.12502
rthumb 11.4422 -21.5057
lclavicle 2.75068e-014 1.51076e-014
lhumerus -32.2884 -3.43864 86.8216
lradius 32.8339
lwrist -6.41511
lhand -17.3176 26.9132
lfingers 7.12502
lthumb 8.92889 56.7043
rfemur -5.69134 -2.64954 27.1202
rtibia 20.4156
rfoot -8.57667 3.30955
rtoes 18.2597
lfemur -7.45871 -1.40692 -17.0424
ltibia 54.4542
lfoot 6.17481 -12.4984
ltoes -4.46387
388
root -14.3085 18.0488 9.74042 149.489 -88.1782 -152.366
lowerback 11.0511 1.33112 1.09487
upperback 1.67912 1.88805 1.17337
thorax -4.44407 0.895118 0.331227
lowerneck -19.5419 -6.46831 -12.5202
upperneck 27.4848 -8.814 10.224
head 13.6098 -4.01923 4.56537
rclavicle -1.06847e-015 3.18055e-015
rhumerus -33.0736 -17.3908 -78.3758
rradius 25.0632
rwrist 12.1046
rhand -14.6658 8.26298
rfingers 7.12502
rthumb 11.4871 -21.4023
lclavicle -1.06847e-015 3.18055e-015
lhumerus -32.4552 -2.36644 86.5645
lradius 32.5365
lwrist -6.93727
lhand -17.4335 26.5815
lfingers 7.12502
lthumb 8.81707 56.3773
rfemur -5.25511 -2.50328 27.1398
rtibia 20.5737
rfoot -9.06428 3.21158
rtoes 17.8167
lfemur -8.42361 -1.37233 -16.9885
ltibia 54.8694
lfoot 4.83223 -11.4736
ltoes -5.94724
389
root -14.4316 18.0458 9.73931 150.74 -87.9667 -153.662
lowerback 11.0153 1.41789 1.14277
upperback 1.68553 2.00955 1.2131
thorax -4.41725 0.95463 0.328908
lowerneck -19.4794 -6.39796 -12.6792
upperneck 27.539 -8.68927 10.2796
head 13.6129 -3.97825 4.6423
rclavicle 1.37658e-014 -6.75868e-015
rhumerus -32.435 -16.8024 -78.5839
rradius 25.1341
rwrist 11.6911
rhand -14.5368 7.56921
rfingers 7.12502
rthumb 11.6115 -22.0891
lclavicle 1.37658e-014 -6.75868e-015
lhumerus -32.8105 -1.58192 86.4844
lradius 32.332
lwrist -6.8674
lhand -17.3465 26.4661
lfingers 7.12502
lthumb 8.90102 56.2583
rfemur -4.89633 -2.43918 27.187
rtibia 20.8454
rfoot -9.54111 3.26698
rtoes 18.5233
lfemur -9.35829 -1.29867 -16.8815
ltibia 55.1298
lfoot 3.68969 -10.3743
ltoes -5.98799
390
root -14.5549 18.0398 9.74158 150.873 -87.7496 -153.864
lowerback 11.0127 1.48775 1.28429
upperback 1.68572 2.11927 1.23169
thorax -4.41101 1.00655 0.252871
lowerneck -19.4461 -6.36473 -12.7233
upperneck 27.6718 -8.64345 10.2618
head 13.6564 -3.96966 4.65629
rclavicle -2.68856e-014 -2.42517e-014
rhumerus -31.8335 -16.2383 -78.8015
rradius 25.2007
rwrist 10.9145
rhand -14.2515 7.46919
rfingers 7.12502
rthumb 11.8866 -22.1734
lclavicle -2.68856e-014 -2.42517e-014
lhumerus -33.1505 -0.977704 86.4226
lradius 32.1175
lwrist -6.54296
lhand -16.9951 26.6561
lfingers 7.12502
lthumb 9.24006 56.4336
rfemur -4.55228 -2.46487 27.238
rtibia 21.2217
rfoot -10.0485 3.42986
rtoes 19.3129
lfemur -10.215 -1.29206 -16.7664
ltibia 55.2468
lfoot 2.55167 -9.27249
ltoes -6.02019
391
root -14.6725 18.0239 9.7444 153.033 -87.7375 -156.105
lowerback 11.068 1.55832 1.33758
upperback 1.71216 2.21449 1.12734
thorax -4.40746 1.05202 0.0993718
lowerneck -19.4987 -6.41105 -12.5314
upperneck 27.7439 -8.7037 10.0374
head 13.6834 -4.0022 4.52092
rclavicle -3.3048e-015 -1.98785e-015
rhumerus -31.2394 -16.0512 -79.0244
rradius 25.1473
rwrist 10.7717
rhand -14.443 8.26503
rfingers 7.12502
rthumb 11.7019 -21.3881
lclavicle -3.3048e-015 -1.98785e-015
lhumerus -33.3298 -0.153703 86.1
lradius 31.8355
lwrist -6.55855
lhand -16.5292 26.6652
lfingers 7.12502
lthumb 9.68956 56.4223
rfemur -4.25318 -2.60307 27.1264
rtibia 21.6435
rfoot -10.5983 3.49452
rtoes 18.5031
lfemur -11.0921 -1.46972 -16.8749
ltibia 55.2257
lfoot 1.53664 -8.21439
ltoes -5.05259
392
root -14.7863 18.0013 9.74142 154.284 -87.808 -157.486
lowerback 11.2302 1.60541 1.31457
upperback 1.73771 2.27287 1.06573
thorax -4.46861 1.07979 0.0353636
lowerneck -19.5578 -6.45068 -12.5261
upperneck 27.7946 -8.73239 9.95572
head 13.717 -4.02234 4.48176
rclavicle -4.29872e-015 5.96354e-015
rhumerus -30.6284 -15.2703 -79.4684
rradius 25.1642
rwrist 11.2279
rhand -15.7878 7.86804
rfingers 7.12502
rthumb 10.4049 -21.8545
lclavicle -4.29872e-015 5.96354e-015
lhumerus -33.5245 0.340142 85.9154
lradius 31.5462
lwrist -6.33947
lhand -16.444 26.5862
lfingers 7.12502
lthumb 9.77182 56.3394
rfemur -3.88883 -2.4845 27.0659
rtibia 22.0463
rfoot -11.1671 3.26016
rtoes 17.5541
lfemur -11.9155 -1.58219 -16.9463
ltibia 55.0667
lfoot 0.422353 -7.40127
ltoes -6.1649
393
root -14.9024 17.9833 9.73523 153.739 -87.6885 -156.975
lowerback 11.2945 1.62782 1.28131
upperback 1.69111 2.30479 1.13793
thorax -4.55719 1.09588 0.121808
lowerneck -19.5134 -6.38946 -12.7208
upperneck 27.9205 -8.6163 10.0088
head 13.7578 -3.9909 4.56427
rclavicle -7.00716e-015 8.74653e-015
rhumerus -30.0362 -15.0831 -79.3682
rradius 25.152
rwrist 11.1375
rhand -15.207 8.05137
rfingers 7.12502
rthumb 10.9651 -21.6423
lclavicle -7.00716e-015 8.74653e-015
lhumerus -33.9432 0.833341 85.8727
lradius 31.3732
lwrist -5.90168
lhand -16.2408 26.5877
lfingers 7.12502
lthumb 9.96788 56.3316
rfemur -3.58139 -2.05491 27.2018
rtibia 22.4264
rfoot -11.7685 2.96674
rtoes 17.2894
lfemur -12.7584 -1.48675 -16.8153
ltibia 54.7926
lfoot -0.928621 -6.30838
ltoes -10.0037
394
root -15.0234 17.9725 9.73099 154.408 -87.3997 -157.517
lowerback 11.0486 1.71978 1.33624
upperback 1.69831 2.43054 1.16709
thorax -4.4117 1.15901 0.110392
lowerneck -19.579 -6.39169 -12.9381
upperneck 27.9997 -8.58517 10.1325
head 13.8205 -3.98449 4.66087
rclavicle 3.62782e-015 1.98785e-015
rhumerus -29.3374 -15.8714 -79.1215
rradius 24.975
rwrist 12.3238
rhand -15.0499 7.96903
rfingers 7.12502
rthumb 11.1166 -21.7165
lclavicle 3.62782e-015 1.98785e-015
lhumerus -34.1463 1.42826 85.7139
lradius 31.036
lwrist -5.80657
lhand -15.7088 26.5475
lfingers 7.12502
lthumb 10.481 56.2662
rfemur -3.39666 -1.64668 27.3438
rtibia 22.7477
rfoot -12.4224 2.87563
rtoes 17.2621
lfemur -13.7001 -1.28706 -16.6859
ltibia 54.3864
lfoot -2.17571 -5.00744
ltoes -13.7538
395
root -15.1408 17.9543 9.73283 152.82 -87.1761 -155.935
lowerback 11.0005 1.79826 1.59482
upperback 1.73025 2.56055 1.1275
thorax -4.3376 1.2194 -0.0924385
lowerneck -19.6106 -6.40809 -12.8704
upperneck 27.9898 -8.61627 10.1048
head 13.8223 -3.99237 4.63102
rclavicle 1.61264e-014 1.59028e-015
rhumerus -28.6762 -16.618 -79.0653
rradius 24.8099
rwrist 13.3567
rhand -15.1016 8.12176
rfingers 7.12502
rthumb 11.0667 -21.5665
lclavicle 1.61264e-014 1.59028e-015
lhumerus -34.2554 1.73226 85.5662
lradius 30.6262
lwrist -5.64675
lhand -15.5771 26.8162
lfingers 7.12502
lthumb 10.6081 56.5285
rfemur -3.06231 -1.66759 27.5108
rtibia 22.9688
rfoot -12.9268 2.84016
rtoes 16.3861
lfemur -14.4912 -1.22068 -16.5061
ltibia 53.8556
lfoot -3.05455 -3.97665
ltoes -15.1634
396
root -15.2574 17.9362 9.73722 152.318 -86.9939 -155.409
lowerback 11.044 1.86526 1.76316
upperback 1.66475 2.67161 1.09176
thorax -4.41942 1.27099 -0.242812
lowerneck -19.5198 -6.37999 -12.8021
upperneck 27.9943 -8.61596 10.1088
head 13.8009 -3.98846 4.62222
rclavicle -1.51076e-014 -6.75868e-015
rhumerus -28.2388 -15.0919 -79.6329
rradius 25.2522
rwrist 11.8233
rhand -15.2464 7.90814
rfingers 7.12502
rthumb 10.927 -21.7875
lclavicle -1.51076e-014 -6.75868e-015
lhumerus -34.5342 2.00418 85.4559
lradius 30.2694
lwrist -5.45682
lhand -15.9043 26.92
lfingers 7.12502
lthumb 10.2925 56.6481
rfemur -2.72521 -2.02113 27.5395
rtibia 23.0685
rfoot -13.1713 3.06461
rtoes 15.7203
lfemur -15.2804 -1.13287 -16.3921
ltibia 53.1966
lfoot -3.76898 -3.15816
ltoes -15.1125
397
root -15.3766 17.923 9.74084 152.97 -86.6148 -155.989
lowerback 11.0019 2.01849 1.94676
upperback 1.59543 2.89887 1.09092
thorax -4.456 1.38035 -0.379268
lowerneck -19.44 -6.37811 -12.9527
upperneck 28.0579 -8.61021 10.1919
head 13.8234 -3.9965 4.68686
rclavicle 7.47927e-015 -8.54774e-015
rhumerus -27.8745 -13.5139 -80.1014
rradius 25.849
rwrist 10.1731
rhand -15.3171 7.24557
rfingers 7.12502
rthumb 10.8589 -22.4537
lclavicle 7.47927e-015 -8.54774e-015
lhumerus -34.8016 2.48713 85.3085
lradius 29.8969
lwrist -5.50145
lhand -15.9752 26.8953
lfingers 7.12502
lthumb 10.224 56.6268
rfemur -2.34712 -2.00765 27.6242
rtibia 23.0339
rfoot -13.3866 3.23055
rtoes 15.2159
lfemur -16.0231 -0.990149 -16.2524
ltibia 52.4239
lfoot -4.38295 -2.2664
ltoes -14.2976
398
root -15.4929 17.9112 9.74499 150.35 -86.2148 -153.281
lowerback 10.9125 2.18143 2.4099
upperback 1.60246 3.16573 1.08784
thorax -4.36866 1.50566 -0.675683
lowerneck -19.5214 -6.42053 -12.9079
upperneck 28.1047 -8.66294 10.1421
head 13.8638 -4.01782 4.64902
rclavicle -7.70291e-015 -1.76918e-014
rhumerus -27.3739 -13.5837 -80.1678
rradius 26.1544
rwrist 10.0369
rhand -15.3201 7.40777
rfingers 7.12502
rthumb 10.856 -22.2916
lclavicle -7.70291e-015 -1.76918e-014
lhumerus -34.8409 2.90531 85.1108
lradius 29.4953
lwrist -5.92993
lhand -15.6229 26.881
lfingers 7.12502
lthumb 10.564 56.5956
rfemur -1.91682 -1.55395 27.9969
rtibia 22.9037
rfoot -13.678 3.02286
rtoes 15.5738
lfemur -16.8066 -0.908267 -15.8753
ltibia 51.5466
lfoot -4.84067 -1.48919
ltoes -12.6304
399
root -15.6087 17.9001 9.75021 145.785 -85.8454 -148.652
lowerback 10.8922 2.25678 3.01226
upperback 1.59704 3.33525 1.1188
thorax -4.32565 1.58006 -1.00289
lowerneck -19.653 -6.4178 -12.6845
upperneck 28.1681 -8.66115 9.95968
head 13.8956 -4.01143 4.53586
rclavicle 4.77083e-015 1.68967e-014
rhumerus -26.8999 -13.9533 -80.1614
rradius 26.4283
rwrist 10.2913
rhand -15.1728 7.96323
rfingers 7.12502
rthumb 10.9981 -21.7287
lclavicle 4.77083e-015 1.68967e-014
lhumerus -34.9382 3.1709 84.9246
lradius 29.1154
lwrist -6.37125
lhand -15.3252 26.8518
lfingers 7.12502
lthumb 10.8511 56.5515
rfemur -1.44114 -1.34502 28.4969
rtibia 22.7045
rfoot -13.9381 2.89718
rtoes 15.6911
lfemur -17.541 -0.914077 -15.3277
ltibia 50.5374
lfoot -5.19602 -1.13104
ltoes -10.339
